<?xml version="1.0" encoding="utf-8"?>
<!-- Generator: Adobe Illustrator 24.0.0, SVG Export Plug-In . SVG Version: 6.00 Build 0)  -->
<svg version="1.1" id="Layer_1" xmlns="http://www.w3.org/2000/svg" xmlns:xlink="http://www.w3.org/1999/xlink" x="0px" y="0px"
	 viewBox="0 0 165.77 39.37" style="enable-background:new 0 0 165.77 39.37;" xml:space="preserve">
<style type="text/css">
	.st0{fill:#FFFFFF;}
	.st1{fill:#FFBB00;}
	.st2{opacity:0.2;}
	.st3{fill:#FF5500;}
</style>
<g>
	<g>
		<g class="st2">
			<path d="M18.06,11.32c1.23,0,2.33,0.14,3.29,0.43s1.78,0.68,2.46,1.18c0.68,0.5,1.2,1.05,1.56,1.67
				c0.36,0.62,0.55,1.25,0.56,1.91c0,0.14-0.05,0.26-0.16,0.36c-0.1,0.1-0.23,0.14-0.37,0.14h-4.42c-0.16,0-0.29-0.02-0.38-0.07
				c-0.1-0.05-0.18-0.12-0.26-0.22c-0.08-0.16-0.2-0.34-0.37-0.55s-0.4-0.39-0.71-0.54c-0.3-0.15-0.7-0.23-1.2-0.23
				c-0.75,0-1.34,0.19-1.75,0.58c-0.42,0.38-0.64,0.99-0.67,1.82c-0.05,1.34-0.05,2.72,0,4.13c0.03,0.91,0.27,1.57,0.71,1.98
				c0.44,0.41,1.04,0.61,1.79,0.61c0.5,0,0.94-0.08,1.33-0.24c0.39-0.16,0.7-0.41,0.92-0.76c0.22-0.34,0.34-0.79,0.34-1.33v-0.24
				h-1.7c-0.18,0-0.32-0.06-0.44-0.19c-0.12-0.13-0.18-0.27-0.18-0.43v-2.23c0-0.18,0.06-0.32,0.18-0.44
				c0.12-0.12,0.27-0.18,0.44-0.18h6.31c0.18,0,0.33,0.06,0.46,0.18c0.13,0.12,0.19,0.27,0.19,0.44v2.93c0,1.41-0.34,2.6-1.01,3.58
				c-0.67,0.98-1.6,1.72-2.78,2.23s-2.56,0.77-4.13,0.77c-1.58,0-2.94-0.24-4.08-0.73c-1.14-0.49-2.02-1.22-2.66-2.2
				c-0.64-0.98-0.98-2.18-1.03-3.62c-0.02-0.67-0.02-1.4-0.02-2.17c0-0.78,0.01-1.51,0.02-2.2c0.05-1.39,0.4-2.56,1.04-3.5
				c0.65-0.94,1.55-1.66,2.7-2.14C15.18,11.56,16.53,11.32,18.06,11.32 M18.06,7.35c-2.05,0-3.92,0.34-5.56,1.03
				c-1.86,0.78-3.36,1.97-4.45,3.55c-1.08,1.57-1.66,3.46-1.74,5.61C6.3,18.3,6.3,19.06,6.3,19.87c0,0.81,0.01,1.57,0.03,2.27
				c0.07,2.21,0.64,4.12,1.68,5.71c1.07,1.63,2.56,2.87,4.42,3.67c1.63,0.7,3.53,1.05,5.65,1.05c2.11,0,4.03-0.37,5.7-1.09
				c1.87-0.81,3.38-2.03,4.48-3.62c1.13-1.65,1.71-3.61,1.71-5.83v-2.93c0-0.48-0.07-0.94-0.21-1.38c0.11-0.39,0.16-0.79,0.16-1.21
				c0-0.03,0-0.07,0-0.1c-0.03-1.33-0.4-2.61-1.1-3.81c-0.64-1.09-1.53-2.06-2.65-2.87c-1.04-0.76-2.27-1.36-3.66-1.77
				C21.17,7.55,19.68,7.35,18.06,7.35L18.06,7.35z"/>
			<path d="M34.22,15.64c1.07,0,1.99,0.12,2.76,0.36c0.77,0.24,1.4,0.58,1.9,1.01c0.5,0.43,0.86,0.96,1.1,1.57
				c0.24,0.62,0.36,1.3,0.36,2.05v7.1c0,0.18-0.06,0.32-0.18,0.44c-0.12,0.12-0.27,0.18-0.44,0.18h-3.48
				c-0.18,0-0.33-0.06-0.46-0.18c-0.13-0.12-0.19-0.27-0.19-0.44v-0.77c-0.21,0.32-0.48,0.6-0.83,0.84
				c-0.34,0.24-0.74,0.43-1.2,0.58c-0.46,0.14-0.96,0.22-1.52,0.22c-0.88,0-1.67-0.17-2.36-0.5c-0.7-0.34-1.24-0.79-1.63-1.36
				c-0.39-0.57-0.59-1.2-0.59-1.91c0-1.15,0.47-2.06,1.4-2.72c0.94-0.66,2.19-1.12,3.76-1.38l2.78-0.43v-0.17
				c0-0.5-0.08-0.87-0.24-1.12c-0.16-0.25-0.48-0.37-0.96-0.37c-0.34,0-0.61,0.06-0.82,0.19c-0.21,0.13-0.4,0.31-0.58,0.55
				c-0.16,0.18-0.37,0.26-0.62,0.26h-3.38c-0.16,0-0.29-0.05-0.4-0.14c-0.1-0.1-0.15-0.22-0.13-0.38c0.02-0.29,0.14-0.63,0.36-1.02
				c0.22-0.39,0.57-0.78,1.04-1.15c0.47-0.38,1.08-0.69,1.84-0.94C32.26,15.76,33.16,15.64,34.22,15.64 M33.42,25.45
				c0.4,0,0.75-0.08,1.06-0.25c0.3-0.17,0.54-0.43,0.71-0.78c0.17-0.35,0.25-0.79,0.25-1.32v-0.17l-1.73,0.34
				c-0.59,0.11-1.01,0.27-1.25,0.48c-0.24,0.21-0.36,0.45-0.36,0.72c0,0.19,0.06,0.36,0.17,0.5c0.11,0.14,0.27,0.26,0.47,0.35
				C32.94,25.41,33.17,25.45,33.42,25.45 M34.22,11.67c-1.47,0-2.8,0.19-3.95,0.57c-1.2,0.4-2.23,0.93-3.07,1.6
				c-0.87,0.69-1.55,1.46-2.02,2.29c-0.52,0.91-0.81,1.79-0.87,2.69c-0.06,0.71,0.05,1.41,0.31,2.05c-0.75,1.15-1.14,2.5-1.14,3.96
				c0,1.5,0.45,2.94,1.29,4.16c0.78,1.13,1.85,2.04,3.17,2.67c1.23,0.6,2.61,0.9,4.09,0.9c0.96,0,1.88-0.13,2.72-0.4
				c0.04-0.01,0.08-0.03,0.13-0.04c0.43,0.13,0.89,0.2,1.36,0.2h3.48c1.23,0,2.39-0.48,3.26-1.35c0.86-0.85,1.34-2.01,1.34-3.24
				v-7.1c0-1.24-0.21-2.42-0.63-3.49c-0.48-1.22-1.21-2.27-2.19-3.12c-0.91-0.79-2.03-1.4-3.32-1.8
				C37,11.85,35.71,11.67,34.22,11.67L34.22,11.67z"/>
			<path d="M47.42,15.64c0.83,0,1.55,0.16,2.16,0.47s1.1,0.72,1.49,1.21V16.5c0-0.18,0.06-0.32,0.18-0.44
				c0.12-0.12,0.27-0.18,0.44-0.18h3.48c0.18,0,0.32,0.06,0.44,0.18c0.12,0.12,0.18,0.27,0.18,0.44l0.02,11.47
				c0,1.3-0.28,2.36-0.83,3.19c-0.55,0.83-1.32,1.45-2.29,1.86c-0.98,0.41-2.11,0.61-3.41,0.61c-1.3,0-2.37-0.16-3.23-0.49
				c-0.86-0.33-1.54-0.73-2.05-1.2c-0.51-0.47-0.88-0.94-1.09-1.39c-0.22-0.46-0.33-0.81-0.35-1.07c-0.02-0.18,0.04-0.32,0.17-0.44
				c0.13-0.12,0.28-0.18,0.46-0.18h3.86c0.16,0,0.29,0.04,0.4,0.12s0.19,0.2,0.25,0.36c0.08,0.14,0.17,0.29,0.28,0.43
				c0.1,0.14,0.25,0.26,0.44,0.34s0.44,0.12,0.74,0.12c0.37,0,0.67-0.06,0.9-0.19c0.23-0.13,0.41-0.33,0.53-0.6
				c0.12-0.27,0.18-0.63,0.18-1.08v-1.61c-0.38,0.37-0.85,0.66-1.4,0.88c-0.55,0.22-1.2,0.32-1.96,0.32c-0.78,0-1.48-0.11-2.1-0.32
				c-0.62-0.22-1.14-0.55-1.56-1c-0.42-0.45-0.76-1.02-1.01-1.7c-0.25-0.69-0.39-1.51-0.42-2.47c-0.02-0.42-0.02-0.83,0-1.25
				c0.03-0.9,0.17-1.69,0.41-2.39c0.24-0.7,0.58-1.28,1.01-1.74c0.43-0.46,0.96-0.82,1.57-1.07C45.93,15.76,46.63,15.64,47.42,15.64
				 M49.07,24.3c0.38,0,0.7-0.08,0.94-0.24c0.24-0.16,0.42-0.37,0.54-0.64c0.12-0.26,0.2-0.56,0.23-0.9
				c0.02-0.14,0.02-0.38,0.02-0.7c0-0.32-0.01-0.54-0.02-0.67c-0.03-0.34-0.11-0.64-0.23-0.9c-0.12-0.26-0.3-0.48-0.54-0.64
				c-0.24-0.16-0.55-0.24-0.94-0.24c-0.42,0-0.74,0.08-0.98,0.25c-0.24,0.17-0.41,0.4-0.52,0.7s-0.17,0.64-0.2,1.02
				c-0.03,0.34-0.03,0.66,0,0.98c0.03,0.38,0.1,0.72,0.2,1.02c0.1,0.3,0.28,0.53,0.52,0.7C48.33,24.22,48.66,24.3,49.07,24.3
				 M47.42,11.67c-1.29,0-2.49,0.22-3.58,0.66c-1.16,0.47-2.17,1.16-3,2.05c-0.81,0.87-1.43,1.93-1.86,3.15
				c-0.37,1.07-0.58,2.26-0.62,3.54c-0.02,0.51-0.02,1.03,0,1.54c0.05,1.35,0.27,2.59,0.65,3.67c0.09,0.25,0.19,0.49,0.29,0.72
				c-0.53,0.81-0.77,1.78-0.7,2.78c0.05,0.77,0.28,1.56,0.72,2.48c0.43,0.91,1.1,1.79,1.99,2.61c0.88,0.81,2,1.48,3.32,1.99
				c1.33,0.51,2.85,0.75,4.65,0.75c1.82,0,3.48-0.31,4.94-0.92c1.71-0.72,3.08-1.83,4.07-3.33c0.99-1.49,1.49-3.3,1.49-5.39
				l-0.02-11.48c0-1.23-0.48-2.38-1.35-3.25c-0.86-0.86-2.01-1.34-3.24-1.34h-3.48c-0.48,0-0.94,0.07-1.38,0.21
				C49.41,11.82,48.45,11.67,47.42,11.67L47.42,11.67z"/>
			<path d="M67.05,15.64c0.86,0,1.65,0.2,2.35,0.6c0.7,0.4,1.27,1,1.7,1.8s0.65,1.81,0.65,3.02v6.67c0,0.18-0.06,0.32-0.19,0.44
				c-0.13,0.12-0.28,0.18-0.46,0.18h-3.79c-0.18,0-0.32-0.06-0.44-0.18c-0.12-0.12-0.18-0.27-0.18-0.44v-6.5
				c0-0.59-0.14-1.05-0.43-1.37c-0.29-0.32-0.7-0.48-1.22-0.48c-0.53,0-0.94,0.16-1.25,0.48c-0.3,0.32-0.46,0.78-0.46,1.37v6.5
				c0,0.18-0.06,0.32-0.18,0.44c-0.12,0.12-0.27,0.18-0.44,0.18h-3.77c-0.18,0-0.32-0.06-0.44-0.18c-0.12-0.12-0.18-0.27-0.18-0.44
				V16.5c0-0.18,0.06-0.32,0.18-0.44c0.12-0.12,0.27-0.18,0.44-0.18h3.48c0.18,0,0.32,0.06,0.44,0.18c0.12,0.12,0.18,0.27,0.18,0.44
				v0.86c0.42-0.48,0.97-0.89,1.66-1.22S66.17,15.64,67.05,15.64 M67.05,11.67c-1.1,0-2.14,0.17-3.1,0.5
				c-0.48-0.17-1-0.26-1.53-0.26h-3.48c-1.23,0-2.39,0.48-3.26,1.35c-0.86,0.85-1.34,2.01-1.34,3.24v11.23
				c0,1.23,0.48,2.39,1.35,3.26c0.85,0.86,2.01,1.34,3.24,1.34h3.77c0.82,0,1.61-0.21,2.3-0.61c0.69,0.4,1.48,0.61,2.31,0.61h3.79
				c1.18,0,2.3-0.44,3.17-1.25c0.93-0.87,1.45-2.06,1.45-3.34v-6.67c0-1.88-0.38-3.53-1.12-4.91c-0.79-1.46-1.88-2.59-3.23-3.36
				C70.05,12.04,68.6,11.67,67.05,11.67L67.05,11.67z"/>
			<path d="M80.15,15.64c1.07,0,1.99,0.12,2.76,0.36c0.77,0.24,1.4,0.58,1.9,1.01c0.5,0.43,0.86,0.96,1.1,1.57
				c0.24,0.62,0.36,1.3,0.36,2.05v7.1c0,0.18-0.06,0.32-0.18,0.44c-0.12,0.12-0.27,0.18-0.44,0.18h-3.48
				c-0.18,0-0.33-0.06-0.46-0.18c-0.13-0.12-0.19-0.27-0.19-0.44v-0.77c-0.21,0.32-0.48,0.6-0.83,0.84
				c-0.34,0.24-0.74,0.43-1.2,0.58c-0.46,0.14-0.96,0.22-1.52,0.22c-0.88,0-1.67-0.17-2.36-0.5c-0.7-0.34-1.24-0.79-1.63-1.36
				c-0.39-0.57-0.59-1.2-0.59-1.91c0-1.15,0.47-2.06,1.4-2.72c0.94-0.66,2.19-1.12,3.76-1.38l2.78-0.43v-0.17
				c0-0.5-0.08-0.87-0.24-1.12c-0.16-0.25-0.48-0.37-0.96-0.37c-0.34,0-0.61,0.06-0.82,0.19c-0.21,0.13-0.4,0.31-0.58,0.55
				c-0.16,0.18-0.37,0.26-0.62,0.26h-3.38c-0.16,0-0.29-0.05-0.4-0.14c-0.1-0.1-0.15-0.22-0.13-0.38c0.02-0.29,0.14-0.63,0.36-1.02
				c0.22-0.39,0.57-0.78,1.04-1.15c0.47-0.38,1.08-0.69,1.84-0.94C78.19,15.76,79.1,15.64,80.15,15.64 M79.36,25.45
				c0.4,0,0.75-0.08,1.06-0.25c0.3-0.17,0.54-0.43,0.71-0.78c0.17-0.35,0.25-0.79,0.25-1.32v-0.17l-1.73,0.34
				c-0.59,0.11-1.01,0.27-1.25,0.48c-0.24,0.21-0.36,0.45-0.36,0.72c0,0.19,0.06,0.36,0.17,0.5c0.11,0.14,0.27,0.26,0.47,0.35
				C78.88,25.41,79.1,25.45,79.36,25.45 M80.15,11.67c-1.47,0-2.8,0.19-3.95,0.57c-1.2,0.4-2.23,0.93-3.07,1.6
				c-0.87,0.69-1.55,1.46-2.02,2.29c-0.52,0.91-0.81,1.79-0.87,2.69c-0.06,0.71,0.05,1.41,0.31,2.05c-0.75,1.15-1.14,2.5-1.14,3.96
				c0,1.5,0.45,2.94,1.29,4.16c0.78,1.13,1.85,2.04,3.17,2.67c1.23,0.6,2.61,0.9,4.09,0.9c0.96,0,1.88-0.13,2.72-0.4
				c0.04-0.01,0.08-0.03,0.12-0.04c0.43,0.13,0.89,0.2,1.36,0.2h3.48c1.23,0,2.38-0.48,3.25-1.34c0.86-0.86,1.34-2.02,1.34-3.25
				v-7.1c0-1.24-0.21-2.42-0.63-3.49c-0.47-1.21-1.21-2.26-2.19-3.12c-0.91-0.8-2.03-1.4-3.32-1.81
				C82.93,11.85,81.64,11.67,80.15,11.67L80.15,11.67z"/>
			<path d="M97.38,15.64c0.86,0,1.65,0.2,2.35,0.6c0.7,0.4,1.27,1,1.7,1.8s0.65,1.81,0.65,3.02v6.67c0,0.18-0.06,0.32-0.19,0.44
				c-0.13,0.12-0.28,0.18-0.46,0.18h-3.79c-0.18,0-0.32-0.06-0.44-0.18c-0.12-0.12-0.18-0.27-0.18-0.44v-6.5
				c0-0.59-0.14-1.05-0.43-1.37c-0.29-0.32-0.7-0.48-1.22-0.48c-0.53,0-0.94,0.16-1.25,0.48c-0.3,0.32-0.46,0.78-0.46,1.37v6.5
				c0,0.18-0.06,0.32-0.18,0.44c-0.12,0.12-0.27,0.18-0.44,0.18h-3.77c-0.18,0-0.32-0.06-0.44-0.18c-0.12-0.12-0.18-0.27-0.18-0.44
				V16.5c0-0.18,0.06-0.32,0.18-0.44c0.12-0.12,0.27-0.18,0.44-0.18h3.48c0.18,0,0.32,0.06,0.44,0.18c0.12,0.12,0.18,0.27,0.18,0.44
				v0.86c0.42-0.48,0.97-0.89,1.66-1.22S96.5,15.64,97.38,15.64 M97.38,11.67c-1.1,0-2.14,0.17-3.1,0.5c-0.48-0.17-1-0.26-1.53-0.26
				h-3.48c-1.23,0-2.38,0.48-3.25,1.34c-0.86,0.86-1.34,2.02-1.34,3.25v11.23c0,1.23,0.48,2.39,1.35,3.26
				c0.86,0.86,2.01,1.34,3.24,1.34h3.77c0.82,0,1.61-0.21,2.3-0.61c0.69,0.4,1.48,0.61,2.3,0.61h3.79c1.18,0,2.31-0.45,3.17-1.26
				c0.93-0.87,1.44-2.06,1.44-3.34v-6.67c0-1.87-0.38-3.52-1.12-4.91c-0.79-1.46-1.88-2.59-3.24-3.37
				C100.39,12.04,98.94,11.67,97.38,11.67L97.38,11.67z"/>
			<path d="M110.01,11.32c0.18,0,0.32,0.06,0.44,0.18c0.12,0.12,0.18,0.27,0.18,0.44v3.94h3.02c0.18,0,0.32,0.06,0.44,0.18
				c0.12,0.12,0.18,0.27,0.18,0.44v2.42c0,0.18-0.06,0.32-0.18,0.44c-0.12,0.12-0.27,0.18-0.44,0.18h-3.02v3.46
				c0,0.46,0.1,0.83,0.29,1.09c0.19,0.26,0.5,0.4,0.91,0.4h2.02c0.18,0,0.32,0.06,0.44,0.18s0.18,0.27,0.18,0.44v2.62
				c0,0.18-0.06,0.32-0.18,0.44c-0.12,0.12-0.27,0.18-0.44,0.18h-2.47c-1.09,0-2.04-0.16-2.87-0.48c-0.82-0.32-1.46-0.84-1.92-1.57
				s-0.68-1.69-0.68-2.89v-3.86h-1.9c-0.18,0-0.32-0.06-0.44-0.18c-0.12-0.12-0.18-0.27-0.18-0.44V16.5c0-0.18,0.06-0.32,0.18-0.44
				c0.12-0.12,0.27-0.18,0.44-0.18h1.9v-3.94c0-0.18,0.06-0.32,0.18-0.44c0.12-0.12,0.27-0.18,0.44-0.18H110.01 M110.01,7.35h-3.48
				c-1.23,0-2.38,0.48-3.25,1.34c-0.86,0.86-1.34,2.02-1.34,3.25v0.46c-0.43,0.22-0.83,0.5-1.18,0.85
				c-0.86,0.86-1.34,2.02-1.34,3.25v2.42c0,1.23,0.48,2.38,1.34,3.25c0.35,0.35,0.75,0.64,1.18,0.85v0.39c0,1.95,0.43,3.63,1.29,5
				c0.91,1.44,2.24,2.54,3.85,3.16c1.28,0.5,2.73,0.75,4.3,0.75h2.47c1.23,0,2.38-0.48,3.25-1.34c0.86-0.86,1.34-2.02,1.34-3.25
				v-2.62c0-1.21-0.46-2.34-1.29-3.2c0.71-0.83,1.1-1.88,1.1-2.99V16.5c0-1.23-0.48-2.39-1.35-3.26c-0.64-0.64-1.43-1.06-2.3-1.24
				v-0.06c0-1.23-0.48-2.39-1.35-3.26C112.39,7.83,111.24,7.35,110.01,7.35L110.01,7.35z"/>
			<path d="M123.59,9.73c0.18,0,0.32,0.06,0.44,0.18c0.12,0.12,0.18,0.27,0.18,0.44v2.54c0,0.16-0.06,0.3-0.18,0.42
				c-0.12,0.12-0.27,0.19-0.44,0.2c-0.64,0.05-1.18,0.26-1.61,0.64s-0.77,0.9-1.01,1.56c-0.24,0.66-0.41,1.44-0.52,2.32
				c-0.1,0.88-0.16,1.85-0.16,2.9s0.05,2.03,0.16,2.92c0.1,0.89,0.28,1.66,0.52,2.32c0.24,0.66,0.58,1.18,1.01,1.56
				s0.97,0.6,1.61,0.65c0.18,0.02,0.32,0.08,0.44,0.19s0.18,0.26,0.18,0.43v2.54c0,0.18-0.06,0.32-0.18,0.44
				c-0.12,0.12-0.27,0.18-0.44,0.18c-1.12,0-2.15-0.21-3.08-0.62c-0.94-0.42-1.75-1.07-2.44-1.97c-0.69-0.9-1.22-2.06-1.58-3.48
				c-0.37-1.42-0.55-3.14-0.55-5.16c0-2.03,0.18-3.76,0.55-5.18c0.37-1.42,0.9-2.58,1.58-3.46c0.69-0.88,1.5-1.53,2.44-1.94
				C121.44,9.94,122.47,9.73,123.59,9.73 M123.59,5.76c-1.67,0-3.25,0.32-4.7,0.97c-1.53,0.68-2.86,1.73-3.95,3.13
				c-1.02,1.31-1.8,2.96-2.3,4.91c-0.46,1.77-0.68,3.79-0.68,6.18c0,2.38,0.22,4.39,0.68,6.15c0.5,1.94,1.27,3.59,2.28,4.9
				c1.09,1.42,2.43,2.49,3.97,3.18c1.44,0.64,3.02,0.97,4.7,0.97c1.23,0,2.38-0.47,3.24-1.34c0.87-0.87,1.35-2.03,1.35-3.26v-2.54
				c0-1.28-0.51-2.47-1.44-3.34c-0.6-0.56-1.33-0.95-2.12-1.13c-0.07-0.26-0.15-0.64-0.21-1.14c-0.08-0.73-0.13-1.55-0.13-2.45
				c0-0.9,0.04-1.72,0.13-2.44c0.05-0.43,0.12-0.81,0.21-1.13c0.84-0.2,1.62-0.63,2.23-1.24c0.86-0.86,1.34-2.01,1.34-3.23v-2.54
				c0-1.23-0.48-2.39-1.35-3.26C125.98,6.24,124.82,5.76,123.59,5.76L123.59,5.76z"/>
			<path d="M131.08,15.64c1.47,0,2.69,0.29,3.66,0.88c0.97,0.58,1.69,1.36,2.17,2.33c0.48,0.97,0.72,2.05,0.72,3.25v0.67
				c0,0.16-0.06,0.3-0.19,0.43c-0.13,0.13-0.28,0.19-0.46,0.19h-7.39c0,0.06,0,0.11,0,0.14c0,0.38,0.05,0.72,0.16,1.02
				c0.1,0.3,0.27,0.53,0.49,0.7c0.22,0.17,0.5,0.25,0.82,0.25c0.21,0,0.38-0.03,0.53-0.1c0.14-0.06,0.27-0.15,0.38-0.25
				c0.11-0.1,0.21-0.2,0.29-0.3c0.14-0.14,0.26-0.24,0.35-0.28s0.23-0.06,0.42-0.06h3.77c0.14,0,0.27,0.05,0.37,0.14
				c0.1,0.1,0.15,0.22,0.13,0.36c-0.02,0.29-0.15,0.64-0.41,1.04c-0.26,0.41-0.64,0.8-1.14,1.19s-1.15,0.7-1.93,0.96
				c-0.78,0.26-1.69,0.38-2.71,0.38c-2,0-3.59-0.52-4.76-1.55c-1.18-1.03-1.78-2.61-1.81-4.74c0-0.06,0-0.15,0-0.25s0-0.18,0-0.23
				c0.05-1.33,0.34-2.45,0.88-3.37s1.29-1.62,2.26-2.1S129.77,15.64,131.08,15.64 M129.59,20.7h2.98v-0.05c0-0.43-0.06-0.8-0.17-1.1
				c-0.11-0.3-0.28-0.53-0.5-0.68c-0.22-0.15-0.5-0.23-0.82-0.23s-0.59,0.08-0.82,0.23c-0.22,0.15-0.39,0.38-0.5,0.68
				c-0.11,0.3-0.17,0.67-0.17,1.1V20.7 M131.08,11.67c-1.92,0-3.67,0.38-5.18,1.13c-1.67,0.83-2.99,2.06-3.92,3.66
				c-0.87,1.49-1.34,3.25-1.41,5.23c0,0.05,0,0.1,0,0.14v0.23v0.25c0,0.02,0,0.04,0,0.06c0.05,3.29,1.11,5.87,3.16,7.66
				c1.92,1.68,4.4,2.53,7.38,2.53c1.44,0,2.76-0.2,3.94-0.58c1.2-0.39,2.25-0.92,3.11-1.58c0.88-0.67,1.59-1.42,2.1-2.23
				c0.61-0.97,0.93-1.89,1-2.84c0.02-0.28,0.02-0.55,0-0.82c0.23-0.55,0.35-1.15,0.35-1.76v-0.67c0-1.81-0.38-3.5-1.13-5.02
				c-0.82-1.65-2.05-2.98-3.68-3.96C135.2,12.15,133.28,11.67,131.08,11.67L131.08,11.67z"/>
			<path d="M138.54,9.73c1.12,0,2.15,0.21,3.08,0.62c0.94,0.42,1.75,1.06,2.44,1.94c0.69,0.88,1.22,2.03,1.58,3.46
				c0.37,1.42,0.55,3.15,0.55,5.18c0,2.02-0.18,3.74-0.55,5.16c-0.37,1.42-0.9,2.58-1.58,3.48c-0.69,0.9-1.5,1.55-2.44,1.97
				c-0.94,0.42-1.96,0.62-3.08,0.62c-0.18,0-0.32-0.06-0.44-0.18c-0.12-0.12-0.18-0.27-0.18-0.44v-2.54c0-0.18,0.06-0.32,0.18-0.43
				c0.12-0.11,0.26-0.18,0.42-0.19c0.66-0.05,1.2-0.26,1.62-0.65c0.42-0.38,0.76-0.9,1.01-1.56c0.25-0.66,0.42-1.43,0.52-2.32
				s0.14-1.86,0.14-2.92s-0.05-2.02-0.14-2.9s-0.27-1.65-0.52-2.32c-0.25-0.66-0.58-1.18-1.01-1.56c-0.42-0.38-0.96-0.59-1.62-0.64
				c-0.16-0.02-0.3-0.08-0.42-0.2c-0.12-0.12-0.18-0.26-0.18-0.42v-2.54c0-0.18,0.06-0.32,0.18-0.44
				C138.22,9.79,138.37,9.73,138.54,9.73 M138.54,5.76c-1.24,0-2.39,0.48-3.26,1.35c-0.85,0.85-1.33,2.01-1.33,3.24v2.54
				c0,1.22,0.48,2.37,1.35,3.23c0.6,0.61,1.38,1.04,2.22,1.24c0.09,0.31,0.16,0.68,0.2,1.09c0.08,0.74,0.12,1.57,0.12,2.47
				c0,0.9-0.04,1.74-0.12,2.49c-0.05,0.5-0.13,0.85-0.2,1.1c-0.8,0.19-1.52,0.58-2.13,1.15c-0.92,0.86-1.43,2.04-1.43,3.33v2.54
				c0,1.23,0.48,2.38,1.34,3.25c0.86,0.86,2.02,1.34,3.25,1.34c1.67,0,3.25-0.33,4.7-0.97c1.54-0.68,2.88-1.75,3.97-3.18
				c1.01-1.32,1.78-2.97,2.28-4.9c0.46-1.77,0.68-3.78,0.68-6.15c0-2.39-0.22-4.41-0.68-6.17c-0.5-1.95-1.28-3.6-2.3-4.91
				c-1.09-1.4-2.42-2.45-3.95-3.13C141.8,6.09,140.22,5.76,138.54,5.76L138.54,5.76z"/>
			<path d="M157.31,11.56c0.18,0,0.33,0.06,0.46,0.18c0.13,0.12,0.19,0.27,0.19,0.44v9.67c0,0.18-0.06,0.32-0.19,0.44
				c-0.13,0.12-0.28,0.18-0.46,0.18h-3.46c-0.18,0-0.32-0.06-0.44-0.18s-0.18-0.27-0.18-0.44v-9.67c0-0.18,0.06-0.32,0.18-0.44
				s0.27-0.18,0.44-0.18H157.31 M157.36,23.53c0.18,0,0.33,0.06,0.46,0.19s0.19,0.27,0.19,0.43v3.58c0,0.18-0.06,0.32-0.19,0.44
				c-0.13,0.12-0.28,0.18-0.46,0.18h-3.55c-0.18,0-0.32-0.06-0.44-0.18c-0.12-0.12-0.18-0.27-0.18-0.44v-3.58
				c0-0.16,0.06-0.3,0.18-0.43s0.27-0.19,0.44-0.19H157.36 M157.31,7.59h-3.46c-1.23,0-2.39,0.48-3.25,1.34
				c-0.87,0.87-1.34,2.02-1.34,3.25v9.67c0,0.36,0.04,0.72,0.12,1.07c-0.11,0.4-0.17,0.81-0.17,1.24v3.58
				c0,1.23,0.48,2.39,1.35,3.26c0.86,0.86,2.01,1.34,3.24,1.34h3.55c1.18,0,2.31-0.45,3.17-1.26c0.93-0.87,1.44-2.06,1.44-3.34
				v-3.58c0-0.42-0.06-0.84-0.17-1.24c0.08-0.34,0.12-0.7,0.12-1.07v-9.67c0-1.28-0.51-2.46-1.44-3.34
				C159.61,8.03,158.49,7.59,157.31,7.59L157.31,7.59z"/>
		</g>
		<g>
			<g>
				<g>
					<path class="st3" d="M16.06,8.32c1.23,0,2.33,0.14,3.29,0.43s1.78,0.68,2.46,1.18c0.68,0.5,1.2,1.05,1.56,1.67
						c0.36,0.62,0.55,1.25,0.56,1.91c0,0.14-0.05,0.26-0.16,0.36c-0.1,0.1-0.23,0.14-0.37,0.14h-4.42c-0.16,0-0.29-0.02-0.38-0.07
						c-0.1-0.05-0.18-0.12-0.26-0.22c-0.08-0.16-0.2-0.34-0.37-0.55s-0.4-0.39-0.71-0.54c-0.3-0.15-0.7-0.23-1.2-0.23
						c-0.75,0-1.34,0.19-1.75,0.58c-0.42,0.38-0.64,0.99-0.67,1.82c-0.05,1.34-0.05,2.72,0,4.13c0.03,0.91,0.27,1.57,0.71,1.98
						c0.44,0.41,1.04,0.61,1.79,0.61c0.5,0,0.94-0.08,1.33-0.24c0.39-0.16,0.7-0.41,0.92-0.76c0.22-0.34,0.34-0.79,0.34-1.33v-0.24
						h-1.7c-0.18,0-0.32-0.06-0.44-0.19c-0.12-0.13-0.18-0.27-0.18-0.43v-2.23c0-0.18,0.06-0.32,0.18-0.44
						c0.12-0.12,0.27-0.18,0.44-0.18h6.31c0.18,0,0.33,0.06,0.46,0.18c0.13,0.12,0.19,0.27,0.19,0.44v2.93
						c0,1.41-0.34,2.6-1.01,3.58c-0.67,0.98-1.6,1.72-2.78,2.23s-2.56,0.77-4.13,0.77c-1.58,0-2.94-0.24-4.08-0.73
						c-1.14-0.49-2.02-1.22-2.66-2.2c-0.64-0.98-0.98-2.18-1.03-3.62c-0.02-0.67-0.02-1.4-0.02-2.17c0-0.78,0.01-1.51,0.02-2.2
						c0.05-1.39,0.4-2.56,1.04-3.5c0.65-0.94,1.55-1.66,2.7-2.14C13.18,8.56,14.53,8.32,16.06,8.32 M16.06,4.35
						c-2.05,0-3.92,0.34-5.56,1.03C8.64,6.15,7.15,7.35,6.06,8.93c-1.08,1.57-1.66,3.46-1.74,5.61C4.3,15.3,4.3,16.06,4.3,16.87
						c0,0.81,0.01,1.57,0.03,2.27c0.07,2.21,0.64,4.12,1.68,5.71c1.07,1.63,2.56,2.87,4.42,3.67c1.63,0.7,3.53,1.05,5.65,1.05
						c2.11,0,4.03-0.37,5.7-1.09c1.87-0.81,3.38-2.03,4.48-3.62c1.13-1.65,1.71-3.61,1.71-5.83v-2.93c0-0.48-0.07-0.94-0.21-1.38
						c0.11-0.39,0.16-0.79,0.16-1.21c0-0.03,0-0.07,0-0.1c-0.03-1.33-0.4-2.61-1.1-3.81c-0.64-1.09-1.53-2.06-2.65-2.87
						c-1.04-0.76-2.27-1.36-3.66-1.77C19.17,4.55,17.68,4.35,16.06,4.35L16.06,4.35z"/>
				</g>
				<g>
					<path class="st3" d="M32.22,12.64c1.07,0,1.99,0.12,2.76,0.36c0.77,0.24,1.4,0.58,1.9,1.01c0.5,0.43,0.86,0.96,1.1,1.57
						c0.24,0.62,0.36,1.3,0.36,2.05v7.1c0,0.18-0.06,0.32-0.18,0.44c-0.12,0.12-0.27,0.18-0.44,0.18h-3.48
						c-0.18,0-0.33-0.06-0.46-0.18c-0.13-0.12-0.19-0.27-0.19-0.44v-0.77c-0.21,0.32-0.48,0.6-0.83,0.84
						c-0.34,0.24-0.74,0.43-1.2,0.58c-0.46,0.14-0.96,0.22-1.52,0.22c-0.88,0-1.67-0.17-2.36-0.5c-0.7-0.34-1.24-0.79-1.63-1.36
						c-0.39-0.57-0.59-1.2-0.59-1.91c0-1.15,0.47-2.06,1.4-2.72c0.94-0.66,2.19-1.12,3.76-1.38l2.78-0.43v-0.17
						c0-0.5-0.08-0.87-0.24-1.12c-0.16-0.25-0.48-0.37-0.96-0.37c-0.34,0-0.61,0.06-0.82,0.19c-0.21,0.13-0.4,0.31-0.58,0.55
						c-0.16,0.18-0.37,0.26-0.62,0.26h-3.38c-0.16,0-0.29-0.05-0.4-0.14c-0.1-0.1-0.15-0.22-0.13-0.38
						c0.02-0.29,0.14-0.63,0.36-1.02c0.22-0.39,0.57-0.78,1.04-1.15c0.47-0.38,1.08-0.69,1.84-0.94
						C30.26,12.76,31.16,12.64,32.22,12.64 M31.42,22.45c0.4,0,0.75-0.08,1.06-0.25c0.3-0.17,0.54-0.43,0.71-0.78
						c0.17-0.35,0.25-0.79,0.25-1.32v-0.17l-1.73,0.34c-0.59,0.11-1.01,0.27-1.25,0.48c-0.24,0.21-0.36,0.45-0.36,0.72
						c0,0.19,0.06,0.36,0.17,0.5c0.11,0.14,0.27,0.26,0.47,0.35C30.94,22.41,31.17,22.45,31.42,22.45 M32.22,8.67
						c-1.47,0-2.8,0.19-3.95,0.57c-1.2,0.4-2.23,0.93-3.07,1.6c-0.87,0.69-1.55,1.46-2.02,2.29c-0.52,0.91-0.81,1.79-0.87,2.69
						c-0.06,0.71,0.05,1.41,0.31,2.05c-0.75,1.15-1.14,2.5-1.14,3.96c0,1.5,0.45,2.94,1.29,4.16c0.78,1.13,1.85,2.04,3.17,2.67
						c1.23,0.6,2.61,0.9,4.09,0.9c0.96,0,1.88-0.13,2.72-0.4c0.04-0.01,0.08-0.03,0.13-0.04c0.43,0.13,0.89,0.2,1.36,0.2h3.48
						c1.23,0,2.39-0.48,3.26-1.35c0.86-0.85,1.34-2.01,1.34-3.24v-7.1c0-1.24-0.21-2.42-0.63-3.49c-0.48-1.22-1.21-2.27-2.19-3.12
						c-0.91-0.79-2.03-1.4-3.32-1.8C35,8.85,33.71,8.67,32.22,8.67L32.22,8.67z"/>
				</g>
				<g>
					<path class="st3" d="M45.42,12.64c0.83,0,1.55,0.16,2.16,0.47s1.1,0.72,1.49,1.21V13.5c0-0.18,0.06-0.32,0.18-0.44
						c0.12-0.12,0.27-0.18,0.44-0.18h3.48c0.18,0,0.32,0.06,0.44,0.18c0.12,0.12,0.18,0.27,0.18,0.44l0.02,11.47
						c0,1.3-0.28,2.36-0.83,3.19c-0.55,0.83-1.32,1.45-2.29,1.86c-0.98,0.41-2.11,0.61-3.41,0.61c-1.3,0-2.37-0.16-3.23-0.49
						c-0.86-0.33-1.54-0.73-2.05-1.2c-0.51-0.47-0.88-0.94-1.09-1.39c-0.22-0.46-0.33-0.81-0.35-1.07
						c-0.02-0.18,0.04-0.32,0.17-0.44c0.13-0.12,0.28-0.18,0.46-0.18h3.86c0.16,0,0.29,0.04,0.4,0.12s0.19,0.2,0.25,0.36
						c0.08,0.14,0.17,0.29,0.28,0.43c0.1,0.14,0.25,0.26,0.44,0.34s0.44,0.12,0.74,0.12c0.37,0,0.67-0.06,0.9-0.19
						c0.23-0.13,0.41-0.33,0.53-0.6c0.12-0.27,0.18-0.63,0.18-1.08v-1.61c-0.38,0.37-0.85,0.66-1.4,0.88
						c-0.55,0.22-1.2,0.32-1.96,0.32c-0.78,0-1.48-0.11-2.1-0.32c-0.62-0.22-1.14-0.55-1.56-1c-0.42-0.45-0.76-1.02-1.01-1.7
						c-0.25-0.69-0.39-1.51-0.42-2.47c-0.02-0.42-0.02-0.83,0-1.25c0.03-0.9,0.17-1.69,0.41-2.39c0.24-0.7,0.58-1.28,1.01-1.74
						c0.43-0.46,0.96-0.82,1.57-1.07C43.93,12.76,44.63,12.64,45.42,12.64 M47.07,21.3c0.38,0,0.7-0.08,0.94-0.24
						c0.24-0.16,0.42-0.37,0.54-0.64c0.12-0.26,0.2-0.56,0.23-0.9c0.02-0.14,0.02-0.38,0.02-0.7c0-0.32-0.01-0.54-0.02-0.67
						c-0.03-0.34-0.11-0.64-0.23-0.9c-0.12-0.26-0.3-0.48-0.54-0.64c-0.24-0.16-0.55-0.24-0.94-0.24c-0.42,0-0.74,0.08-0.98,0.25
						c-0.24,0.17-0.41,0.4-0.52,0.7s-0.17,0.64-0.2,1.02c-0.03,0.34-0.03,0.66,0,0.98c0.03,0.38,0.1,0.72,0.2,1.02
						c0.1,0.3,0.28,0.53,0.52,0.7C46.33,21.22,46.66,21.3,47.07,21.3 M45.42,8.67c-1.29,0-2.49,0.22-3.58,0.66
						c-1.16,0.47-2.17,1.16-3,2.05c-0.81,0.87-1.43,1.93-1.86,3.15c-0.37,1.07-0.58,2.26-0.62,3.54c-0.02,0.51-0.02,1.03,0,1.54
						c0.05,1.35,0.27,2.59,0.65,3.67c0.09,0.25,0.19,0.49,0.29,0.72c-0.53,0.81-0.77,1.78-0.7,2.78c0.05,0.77,0.28,1.56,0.72,2.48
						c0.43,0.91,1.1,1.79,1.99,2.61c0.88,0.81,2,1.48,3.32,1.99c1.33,0.51,2.85,0.75,4.65,0.75c1.82,0,3.48-0.31,4.94-0.92
						c1.71-0.72,3.08-1.83,4.07-3.33c0.99-1.49,1.49-3.3,1.49-5.39l-0.02-11.48c0-1.23-0.48-2.38-1.35-3.25
						c-0.86-0.86-2.01-1.34-3.24-1.34h-3.48c-0.48,0-0.94,0.07-1.38,0.21C47.41,8.82,46.45,8.67,45.42,8.67L45.42,8.67z"/>
				</g>
				<g>
					<path class="st3" d="M65.05,12.64c0.86,0,1.65,0.2,2.35,0.6c0.7,0.4,1.27,1,1.7,1.8s0.65,1.81,0.65,3.02v6.67
						c0,0.18-0.06,0.32-0.19,0.44c-0.13,0.12-0.28,0.18-0.46,0.18h-3.79c-0.18,0-0.32-0.06-0.44-0.18
						c-0.12-0.12-0.18-0.27-0.18-0.44v-6.5c0-0.59-0.14-1.05-0.43-1.37c-0.29-0.32-0.7-0.48-1.22-0.48c-0.53,0-0.94,0.16-1.25,0.48
						c-0.3,0.32-0.46,0.78-0.46,1.37v6.5c0,0.18-0.06,0.32-0.18,0.44c-0.12,0.12-0.27,0.18-0.44,0.18h-3.77
						c-0.18,0-0.32-0.06-0.44-0.18c-0.12-0.12-0.18-0.27-0.18-0.44V13.5c0-0.18,0.06-0.32,0.18-0.44c0.12-0.12,0.27-0.18,0.44-0.18
						h3.48c0.18,0,0.32,0.06,0.44,0.18c0.12,0.12,0.18,0.27,0.18,0.44v0.86c0.42-0.48,0.97-0.89,1.66-1.22S64.17,12.64,65.05,12.64
						 M65.05,8.67c-1.1,0-2.14,0.17-3.1,0.5c-0.48-0.17-1-0.26-1.53-0.26h-3.48c-1.23,0-2.39,0.48-3.26,1.35
						c-0.86,0.85-1.34,2.01-1.34,3.24v11.23c0,1.23,0.48,2.39,1.35,3.26c0.85,0.86,2.01,1.34,3.24,1.34h3.77
						c0.82,0,1.61-0.21,2.3-0.61c0.69,0.4,1.48,0.61,2.31,0.61h3.79c1.18,0,2.3-0.44,3.17-1.25c0.93-0.87,1.45-2.06,1.45-3.34v-6.67
						c0-1.88-0.38-3.53-1.12-4.91c-0.79-1.46-1.88-2.59-3.23-3.36C68.05,9.04,66.6,8.67,65.05,8.67L65.05,8.67z"/>
				</g>
				<g>
					<path class="st3" d="M78.15,12.64c1.07,0,1.99,0.12,2.76,0.36c0.77,0.24,1.4,0.58,1.9,1.01c0.5,0.43,0.86,0.96,1.1,1.57
						c0.24,0.62,0.36,1.3,0.36,2.05v7.1c0,0.18-0.06,0.32-0.18,0.44c-0.12,0.12-0.27,0.18-0.44,0.18h-3.48
						c-0.18,0-0.33-0.06-0.46-0.18c-0.13-0.12-0.19-0.27-0.19-0.44v-0.77c-0.21,0.32-0.48,0.6-0.83,0.84
						c-0.34,0.24-0.74,0.43-1.2,0.58c-0.46,0.14-0.96,0.22-1.52,0.22c-0.88,0-1.67-0.17-2.36-0.5c-0.7-0.34-1.24-0.79-1.63-1.36
						c-0.39-0.57-0.59-1.2-0.59-1.91c0-1.15,0.47-2.06,1.4-2.72c0.94-0.66,2.19-1.12,3.76-1.38l2.78-0.43v-0.17
						c0-0.5-0.08-0.87-0.24-1.12c-0.16-0.25-0.48-0.37-0.96-0.37c-0.34,0-0.61,0.06-0.82,0.19c-0.21,0.13-0.4,0.31-0.58,0.55
						c-0.16,0.18-0.37,0.26-0.62,0.26h-3.38c-0.16,0-0.29-0.05-0.4-0.14c-0.1-0.1-0.15-0.22-0.13-0.38
						c0.02-0.29,0.14-0.63,0.36-1.02c0.22-0.39,0.57-0.78,1.04-1.15c0.47-0.38,1.08-0.69,1.84-0.94
						C76.19,12.76,77.1,12.64,78.15,12.64 M77.36,22.45c0.4,0,0.75-0.08,1.06-0.25c0.3-0.17,0.54-0.43,0.71-0.78
						c0.17-0.35,0.25-0.79,0.25-1.32v-0.17l-1.73,0.34c-0.59,0.11-1.01,0.27-1.25,0.48c-0.24,0.21-0.36,0.45-0.36,0.72
						c0,0.19,0.06,0.36,0.17,0.5c0.11,0.14,0.27,0.26,0.47,0.35C76.88,22.41,77.1,22.45,77.36,22.45 M78.15,8.67
						c-1.47,0-2.8,0.19-3.95,0.57c-1.2,0.4-2.23,0.93-3.07,1.6c-0.87,0.69-1.55,1.46-2.02,2.29c-0.52,0.91-0.81,1.79-0.87,2.69
						c-0.06,0.71,0.05,1.41,0.31,2.05c-0.75,1.15-1.14,2.5-1.14,3.96c0,1.5,0.45,2.94,1.29,4.16c0.78,1.13,1.85,2.04,3.17,2.67
						c1.23,0.6,2.61,0.9,4.09,0.9c0.96,0,1.88-0.13,2.72-0.4c0.04-0.01,0.08-0.03,0.12-0.04c0.43,0.13,0.89,0.2,1.36,0.2h3.48
						c1.23,0,2.38-0.48,3.25-1.34c0.86-0.86,1.34-2.02,1.34-3.25v-7.1c0-1.24-0.21-2.42-0.63-3.49c-0.47-1.21-1.21-2.26-2.19-3.12
						c-0.91-0.8-2.03-1.4-3.32-1.81C80.93,8.85,79.64,8.67,78.15,8.67L78.15,8.67z"/>
				</g>
				<g>
					<path class="st3" d="M95.38,12.64c0.86,0,1.65,0.2,2.35,0.6c0.7,0.4,1.27,1,1.7,1.8s0.65,1.81,0.65,3.02v6.67
						c0,0.18-0.06,0.32-0.19,0.44c-0.13,0.12-0.28,0.18-0.46,0.18h-3.79c-0.18,0-0.32-0.06-0.44-0.18
						c-0.12-0.12-0.18-0.27-0.18-0.44v-6.5c0-0.59-0.14-1.05-0.43-1.37c-0.29-0.32-0.7-0.48-1.22-0.48c-0.53,0-0.94,0.16-1.25,0.48
						c-0.3,0.32-0.46,0.78-0.46,1.37v6.5c0,0.18-0.06,0.32-0.18,0.44c-0.12,0.12-0.27,0.18-0.44,0.18h-3.77
						c-0.18,0-0.32-0.06-0.44-0.18c-0.12-0.12-0.18-0.27-0.18-0.44V13.5c0-0.18,0.06-0.32,0.18-0.44c0.12-0.12,0.27-0.18,0.44-0.18
						h3.48c0.18,0,0.32,0.06,0.44,0.18c0.12,0.12,0.18,0.27,0.18,0.44v0.86c0.42-0.48,0.97-0.89,1.66-1.22S94.5,12.64,95.38,12.64
						 M95.38,8.67c-1.1,0-2.14,0.17-3.1,0.5c-0.48-0.17-1-0.26-1.53-0.26h-3.48c-1.23,0-2.38,0.48-3.25,1.34
						c-0.86,0.86-1.34,2.02-1.34,3.25v11.23c0,1.23,0.48,2.39,1.35,3.26c0.86,0.86,2.01,1.34,3.24,1.34h3.77
						c0.82,0,1.61-0.21,2.3-0.61c0.69,0.4,1.48,0.61,2.3,0.61h3.79c1.18,0,2.31-0.45,3.17-1.26c0.93-0.87,1.44-2.06,1.44-3.34v-6.67
						c0-1.87-0.38-3.52-1.12-4.91c-0.79-1.46-1.88-2.59-3.24-3.37C98.39,9.04,96.94,8.67,95.38,8.67L95.38,8.67z"/>
				</g>
				<g>
					<path class="st3" d="M108.01,8.32c0.18,0,0.32,0.06,0.44,0.18c0.12,0.12,0.18,0.27,0.18,0.44v3.94h3.02
						c0.18,0,0.32,0.06,0.44,0.18c0.12,0.12,0.18,0.27,0.18,0.44v2.42c0,0.18-0.06,0.32-0.18,0.44c-0.12,0.12-0.27,0.18-0.44,0.18
						h-3.02v3.46c0,0.46,0.1,0.83,0.29,1.09c0.19,0.26,0.5,0.4,0.91,0.4h2.02c0.18,0,0.32,0.06,0.44,0.18s0.18,0.27,0.18,0.44v2.62
						c0,0.18-0.06,0.32-0.18,0.44c-0.12,0.12-0.27,0.18-0.44,0.18h-2.47c-1.09,0-2.04-0.16-2.87-0.48
						c-0.82-0.32-1.46-0.84-1.92-1.57s-0.68-1.69-0.68-2.89v-3.86h-1.9c-0.18,0-0.32-0.06-0.44-0.18c-0.12-0.12-0.18-0.27-0.18-0.44
						V13.5c0-0.18,0.06-0.32,0.18-0.44c0.12-0.12,0.27-0.18,0.44-0.18h1.9V8.94c0-0.18,0.06-0.32,0.18-0.44
						c0.12-0.12,0.27-0.18,0.44-0.18H108.01 M108.01,4.35h-3.48c-1.23,0-2.38,0.48-3.25,1.34c-0.86,0.86-1.34,2.02-1.34,3.25V9.4
						c-0.43,0.22-0.83,0.5-1.18,0.85c-0.86,0.86-1.34,2.02-1.34,3.25v2.42c0,1.23,0.48,2.38,1.34,3.25
						c0.35,0.35,0.75,0.64,1.18,0.85v0.39c0,1.95,0.43,3.63,1.29,5c0.91,1.44,2.24,2.54,3.85,3.16c1.28,0.5,2.73,0.75,4.3,0.75h2.47
						c1.23,0,2.38-0.48,3.25-1.34c0.86-0.86,1.34-2.02,1.34-3.25v-2.62c0-1.21-0.46-2.34-1.29-3.2c0.71-0.83,1.1-1.88,1.1-2.99V13.5
						c0-1.23-0.48-2.39-1.35-3.26c-0.64-0.64-1.43-1.06-2.3-1.24V8.94c0-1.23-0.48-2.39-1.35-3.26
						C110.39,4.83,109.24,4.35,108.01,4.35L108.01,4.35z"/>
				</g>
				<g>
					<path class="st3" d="M121.59,6.73c0.18,0,0.32,0.06,0.44,0.18c0.12,0.12,0.18,0.27,0.18,0.44V9.9c0,0.16-0.06,0.3-0.18,0.42
						c-0.12,0.12-0.27,0.19-0.44,0.2c-0.64,0.05-1.18,0.26-1.61,0.64s-0.77,0.9-1.01,1.56c-0.24,0.66-0.41,1.44-0.52,2.32
						c-0.1,0.88-0.16,1.85-0.16,2.9s0.05,2.03,0.16,2.92c0.1,0.89,0.28,1.66,0.52,2.32c0.24,0.66,0.58,1.18,1.01,1.56
						s0.97,0.6,1.61,0.65c0.18,0.02,0.32,0.08,0.44,0.19s0.18,0.26,0.18,0.43v2.54c0,0.18-0.06,0.32-0.18,0.44
						c-0.12,0.12-0.27,0.18-0.44,0.18c-1.12,0-2.15-0.21-3.08-0.62c-0.94-0.42-1.75-1.07-2.44-1.97c-0.69-0.9-1.22-2.06-1.58-3.48
						c-0.37-1.42-0.55-3.14-0.55-5.16c0-2.03,0.18-3.76,0.55-5.18c0.37-1.42,0.9-2.58,1.58-3.46c0.69-0.88,1.5-1.53,2.44-1.94
						C119.44,6.94,120.47,6.73,121.59,6.73 M121.59,2.76c-1.67,0-3.25,0.32-4.7,0.97c-1.53,0.68-2.86,1.73-3.95,3.13
						c-1.02,1.31-1.8,2.96-2.3,4.91c-0.46,1.77-0.68,3.79-0.68,6.18c0,2.38,0.22,4.39,0.68,6.15c0.5,1.94,1.27,3.59,2.28,4.9
						c1.09,1.42,2.43,2.49,3.97,3.18c1.44,0.64,3.02,0.97,4.7,0.97c1.23,0,2.38-0.47,3.24-1.34c0.87-0.87,1.35-2.03,1.35-3.26v-2.54
						c0-1.28-0.51-2.47-1.44-3.34c-0.6-0.56-1.33-0.95-2.12-1.13c-0.07-0.26-0.15-0.64-0.21-1.14c-0.08-0.73-0.13-1.55-0.13-2.45
						c0-0.9,0.04-1.72,0.13-2.44c0.05-0.43,0.12-0.81,0.21-1.13c0.84-0.2,1.62-0.63,2.23-1.24c0.86-0.86,1.34-2.01,1.34-3.23V7.36
						c0-1.23-0.48-2.39-1.35-3.26C123.98,3.24,122.82,2.76,121.59,2.76L121.59,2.76z"/>
				</g>
				<g>
					<path class="st3" d="M129.08,12.64c1.47,0,2.69,0.29,3.66,0.88c0.97,0.58,1.69,1.36,2.17,2.33c0.48,0.97,0.72,2.05,0.72,3.25
						v0.67c0,0.16-0.06,0.3-0.19,0.43c-0.13,0.13-0.28,0.19-0.46,0.19h-7.39c0,0.06,0,0.11,0,0.14c0,0.38,0.05,0.72,0.16,1.02
						c0.1,0.3,0.27,0.53,0.49,0.7c0.22,0.17,0.5,0.25,0.82,0.25c0.21,0,0.38-0.03,0.53-0.1c0.14-0.06,0.27-0.15,0.38-0.25
						c0.11-0.1,0.21-0.2,0.29-0.3c0.14-0.14,0.26-0.24,0.35-0.28s0.23-0.06,0.42-0.06h3.77c0.14,0,0.27,0.05,0.37,0.14
						c0.1,0.1,0.15,0.22,0.13,0.36c-0.02,0.29-0.15,0.64-0.41,1.04c-0.26,0.41-0.64,0.8-1.14,1.19s-1.15,0.7-1.93,0.96
						c-0.78,0.26-1.69,0.38-2.71,0.38c-2,0-3.59-0.52-4.76-1.55c-1.18-1.03-1.78-2.61-1.81-4.74c0-0.06,0-0.15,0-0.25s0-0.18,0-0.23
						c0.05-1.33,0.34-2.45,0.88-3.37s1.29-1.62,2.26-2.1S127.77,12.64,129.08,12.64 M127.59,17.7h2.98v-0.05
						c0-0.43-0.06-0.8-0.17-1.1c-0.11-0.3-0.28-0.53-0.5-0.68c-0.22-0.15-0.5-0.23-0.82-0.23s-0.59,0.08-0.82,0.23
						c-0.22,0.15-0.39,0.38-0.5,0.68c-0.11,0.3-0.17,0.67-0.17,1.1V17.7 M129.08,8.67c-1.92,0-3.67,0.38-5.18,1.13
						c-1.67,0.83-2.99,2.06-3.92,3.66c-0.87,1.49-1.34,3.25-1.41,5.23c0,0.05,0,0.1,0,0.14v0.23v0.25c0,0.02,0,0.04,0,0.06
						c0.05,3.29,1.11,5.87,3.16,7.66c1.92,1.68,4.4,2.53,7.38,2.53c1.44,0,2.76-0.2,3.94-0.58c1.2-0.39,2.25-0.92,3.11-1.58
						c0.88-0.67,1.59-1.42,2.1-2.23c0.61-0.97,0.93-1.89,1-2.84c0.02-0.28,0.02-0.55,0-0.82c0.23-0.55,0.35-1.15,0.35-1.76v-0.67
						c0-1.81-0.38-3.5-1.13-5.02c-0.82-1.65-2.05-2.98-3.68-3.96C133.2,9.15,131.28,8.67,129.08,8.67L129.08,8.67z"/>
				</g>
				<g>
					<path class="st3" d="M136.54,6.73c1.12,0,2.15,0.21,3.08,0.62c0.94,0.42,1.75,1.06,2.44,1.94c0.69,0.88,1.22,2.03,1.58,3.46
						c0.37,1.42,0.55,3.15,0.55,5.18c0,2.02-0.18,3.74-0.55,5.16c-0.37,1.42-0.9,2.58-1.58,3.48c-0.69,0.9-1.5,1.55-2.44,1.97
						c-0.94,0.42-1.96,0.62-3.08,0.62c-0.18,0-0.32-0.06-0.44-0.18c-0.12-0.12-0.18-0.27-0.18-0.44v-2.54
						c0-0.18,0.06-0.32,0.18-0.43c0.12-0.11,0.26-0.18,0.42-0.19c0.66-0.05,1.2-0.26,1.62-0.65c0.42-0.38,0.76-0.9,1.01-1.56
						c0.25-0.66,0.42-1.43,0.52-2.32s0.14-1.86,0.14-2.92s-0.05-2.02-0.14-2.9s-0.27-1.65-0.52-2.32c-0.25-0.66-0.58-1.18-1.01-1.56
						c-0.42-0.38-0.96-0.59-1.62-0.64c-0.16-0.02-0.3-0.08-0.42-0.2c-0.12-0.12-0.18-0.26-0.18-0.42V7.36
						c0-0.18,0.06-0.32,0.18-0.44C136.22,6.79,136.37,6.73,136.54,6.73 M136.54,2.76c-1.24,0-2.39,0.48-3.26,1.35
						c-0.85,0.85-1.33,2.01-1.33,3.24V9.9c0,1.22,0.48,2.37,1.35,3.23c0.6,0.61,1.38,1.04,2.22,1.24c0.09,0.31,0.16,0.68,0.2,1.09
						c0.08,0.74,0.12,1.57,0.12,2.47c0,0.9-0.04,1.74-0.12,2.49c-0.05,0.5-0.13,0.85-0.2,1.1c-0.8,0.19-1.52,0.58-2.13,1.15
						c-0.92,0.86-1.43,2.04-1.43,3.33v2.54c0,1.23,0.48,2.38,1.34,3.25c0.86,0.86,2.02,1.34,3.25,1.34c1.67,0,3.25-0.33,4.7-0.97
						c1.54-0.68,2.88-1.75,3.97-3.18c1.01-1.32,1.78-2.97,2.28-4.9c0.46-1.77,0.68-3.78,0.68-6.15c0-2.39-0.22-4.41-0.68-6.17
						c-0.5-1.95-1.28-3.6-2.3-4.91c-1.09-1.4-2.42-2.45-3.95-3.13C139.8,3.09,138.22,2.76,136.54,2.76L136.54,2.76z"/>
				</g>
				<g>
					<path class="st3" d="M155.31,8.56c0.18,0,0.33,0.06,0.46,0.18c0.13,0.12,0.19,0.27,0.19,0.44v9.67c0,0.18-0.06,0.32-0.19,0.44
						c-0.13,0.12-0.28,0.18-0.46,0.18h-3.46c-0.18,0-0.32-0.06-0.44-0.18s-0.18-0.27-0.18-0.44V9.18c0-0.18,0.06-0.32,0.18-0.44
						s0.27-0.18,0.44-0.18H155.31 M155.36,20.53c0.18,0,0.33,0.06,0.46,0.19s0.19,0.27,0.19,0.43v3.58c0,0.18-0.06,0.32-0.19,0.44
						c-0.13,0.12-0.28,0.18-0.46,0.18h-3.55c-0.18,0-0.32-0.06-0.44-0.18c-0.12-0.12-0.18-0.27-0.18-0.44v-3.58
						c0-0.16,0.06-0.3,0.18-0.43s0.27-0.19,0.44-0.19H155.36 M155.31,4.59h-3.46c-1.23,0-2.39,0.48-3.25,1.34
						c-0.87,0.87-1.34,2.02-1.34,3.25v9.67c0,0.36,0.04,0.72,0.12,1.07c-0.11,0.4-0.17,0.81-0.17,1.24v3.58
						c0,1.23,0.48,2.39,1.35,3.26c0.86,0.86,2.01,1.34,3.24,1.34h3.55c1.18,0,2.31-0.45,3.17-1.26c0.93-0.87,1.44-2.06,1.44-3.34
						v-3.58c0-0.42-0.06-0.84-0.17-1.24c0.08-0.34,0.12-0.7,0.12-1.07V9.18c0-1.28-0.51-2.46-1.44-3.34
						C157.61,5.03,156.49,4.59,155.31,4.59L155.31,4.59z"/>
				</g>
			</g>
		</g>
	</g>
	<g>
		<path class="st0" d="M16.06,25.6c-1.58,0-2.94-0.24-4.08-0.73c-1.14-0.49-2.02-1.22-2.66-2.2c-0.64-0.98-0.98-2.18-1.03-3.62
			c-0.02-0.67-0.02-1.4-0.02-2.17c0-0.78,0.01-1.51,0.02-2.2c0.05-1.39,0.4-2.56,1.04-3.5c0.65-0.94,1.55-1.66,2.7-2.14
			c1.15-0.48,2.5-0.72,4.03-0.72c1.23,0,2.33,0.14,3.29,0.43s1.78,0.68,2.46,1.18c0.68,0.5,1.2,1.05,1.56,1.67
			c0.36,0.62,0.55,1.25,0.56,1.91c0,0.14-0.05,0.26-0.16,0.36c-0.1,0.1-0.23,0.14-0.37,0.14h-4.42c-0.16,0-0.29-0.02-0.38-0.07
			c-0.1-0.05-0.18-0.12-0.26-0.22c-0.08-0.16-0.2-0.34-0.37-0.55s-0.4-0.39-0.71-0.54c-0.3-0.15-0.7-0.23-1.2-0.23
			c-0.75,0-1.34,0.19-1.75,0.58c-0.42,0.38-0.64,0.99-0.67,1.82c-0.05,1.34-0.05,2.72,0,4.13c0.03,0.91,0.27,1.57,0.71,1.98
			c0.44,0.41,1.04,0.61,1.79,0.61c0.5,0,0.94-0.08,1.33-0.24c0.39-0.16,0.7-0.41,0.92-0.76c0.22-0.34,0.34-0.79,0.34-1.33v-0.24
			h-1.7c-0.18,0-0.32-0.06-0.44-0.19c-0.12-0.13-0.18-0.27-0.18-0.43v-2.23c0-0.18,0.06-0.32,0.18-0.44
			c0.12-0.12,0.27-0.18,0.44-0.18h6.31c0.18,0,0.33,0.06,0.46,0.18c0.13,0.12,0.19,0.27,0.19,0.44v2.93c0,1.41-0.34,2.6-1.01,3.58
			c-0.67,0.98-1.6,1.72-2.78,2.23S17.63,25.6,16.06,25.6z"/>
		<path class="st0" d="M30.03,25.6c-0.88,0-1.67-0.17-2.36-0.5c-0.7-0.34-1.24-0.79-1.63-1.36c-0.39-0.57-0.59-1.2-0.59-1.91
			c0-1.15,0.47-2.06,1.4-2.72c0.94-0.66,2.19-1.12,3.76-1.38l2.78-0.43v-0.17c0-0.5-0.08-0.87-0.24-1.12
			c-0.16-0.25-0.48-0.37-0.96-0.37c-0.34,0-0.61,0.06-0.82,0.19c-0.21,0.13-0.4,0.31-0.58,0.55c-0.16,0.18-0.37,0.26-0.62,0.26
			h-3.38c-0.16,0-0.29-0.05-0.4-0.14c-0.1-0.1-0.15-0.22-0.13-0.38c0.02-0.29,0.14-0.63,0.36-1.02c0.22-0.39,0.57-0.78,1.04-1.15
			c0.47-0.38,1.08-0.69,1.84-0.94c0.75-0.25,1.66-0.37,2.71-0.37c1.07,0,1.99,0.12,2.76,0.36c0.77,0.24,1.4,0.58,1.9,1.01
			c0.5,0.43,0.86,0.96,1.1,1.57c0.24,0.62,0.36,1.3,0.36,2.05v7.1c0,0.18-0.06,0.32-0.18,0.44c-0.12,0.12-0.27,0.18-0.44,0.18h-3.48
			c-0.18,0-0.33-0.06-0.46-0.18c-0.13-0.12-0.19-0.27-0.19-0.44v-0.77c-0.21,0.32-0.48,0.6-0.83,0.84c-0.34,0.24-0.74,0.43-1.2,0.58
			C31.1,25.53,30.59,25.6,30.03,25.6z M31.42,22.45c0.4,0,0.75-0.08,1.06-0.25c0.3-0.17,0.54-0.43,0.71-0.78
			c0.17-0.35,0.25-0.79,0.25-1.32v-0.17l-1.73,0.34c-0.59,0.11-1.01,0.27-1.25,0.48c-0.24,0.21-0.36,0.45-0.36,0.72
			c0,0.19,0.06,0.36,0.17,0.5c0.11,0.14,0.27,0.26,0.47,0.35C30.94,22.41,31.17,22.45,31.42,22.45z"/>
		<path class="st0" d="M47.29,30.64c-1.3,0-2.37-0.16-3.23-0.49c-0.86-0.33-1.54-0.73-2.05-1.2c-0.51-0.47-0.88-0.94-1.09-1.39
			c-0.22-0.46-0.33-0.81-0.35-1.07c-0.02-0.18,0.04-0.32,0.17-0.44c0.13-0.12,0.28-0.18,0.46-0.18h3.86c0.16,0,0.29,0.04,0.4,0.12
			s0.19,0.2,0.25,0.36c0.08,0.14,0.17,0.29,0.28,0.43c0.1,0.14,0.25,0.26,0.44,0.34s0.44,0.12,0.74,0.12c0.37,0,0.67-0.06,0.9-0.19
			c0.23-0.13,0.41-0.33,0.53-0.6c0.12-0.27,0.18-0.63,0.18-1.08v-1.61c-0.38,0.37-0.85,0.66-1.4,0.88c-0.55,0.22-1.2,0.32-1.96,0.32
			c-0.78,0-1.48-0.11-2.1-0.32c-0.62-0.22-1.14-0.55-1.56-1c-0.42-0.45-0.76-1.02-1.01-1.7c-0.25-0.69-0.39-1.51-0.42-2.47
			c-0.02-0.42-0.02-0.83,0-1.25c0.03-0.9,0.17-1.69,0.41-2.39c0.24-0.7,0.58-1.28,1.01-1.74c0.43-0.46,0.96-0.82,1.57-1.07
			c0.62-0.25,1.32-0.37,2.1-0.37c0.83,0,1.55,0.16,2.16,0.47s1.1,0.72,1.49,1.21V13.5c0-0.18,0.06-0.32,0.18-0.44
			c0.12-0.12,0.27-0.18,0.44-0.18h3.48c0.18,0,0.32,0.06,0.44,0.18c0.12,0.12,0.18,0.27,0.18,0.44l0.02,11.47
			c0,1.3-0.28,2.36-0.83,3.19c-0.55,0.83-1.32,1.45-2.29,1.86C49.72,30.43,48.58,30.64,47.29,30.64z M47.07,21.3
			c0.38,0,0.7-0.08,0.94-0.24c0.24-0.16,0.42-0.37,0.54-0.64c0.12-0.26,0.2-0.56,0.23-0.9c0.02-0.14,0.02-0.38,0.02-0.7
			c0-0.32-0.01-0.54-0.02-0.67c-0.03-0.34-0.11-0.64-0.23-0.9c-0.12-0.26-0.3-0.48-0.54-0.64c-0.24-0.16-0.55-0.24-0.94-0.24
			c-0.42,0-0.74,0.08-0.98,0.25c-0.24,0.17-0.41,0.4-0.52,0.7s-0.17,0.64-0.2,1.02c-0.03,0.34-0.03,0.66,0,0.98
			c0.03,0.38,0.1,0.72,0.2,1.02c0.1,0.3,0.28,0.53,0.52,0.7C46.33,21.22,46.66,21.3,47.07,21.3z"/>
		<path class="st0" d="M56.94,25.36c-0.18,0-0.32-0.06-0.44-0.18c-0.12-0.12-0.18-0.27-0.18-0.44V13.5c0-0.18,0.06-0.32,0.18-0.44
			c0.12-0.12,0.27-0.18,0.44-0.18h3.48c0.18,0,0.32,0.06,0.44,0.18c0.12,0.12,0.18,0.27,0.18,0.44v0.86
			c0.42-0.48,0.97-0.89,1.66-1.22s1.47-0.5,2.35-0.5c0.86,0,1.65,0.2,2.35,0.6c0.7,0.4,1.27,1,1.7,1.8s0.65,1.81,0.65,3.02v6.67
			c0,0.18-0.06,0.32-0.19,0.44c-0.13,0.12-0.28,0.18-0.46,0.18h-3.79c-0.18,0-0.32-0.06-0.44-0.18c-0.12-0.12-0.18-0.27-0.18-0.44
			v-6.5c0-0.59-0.14-1.05-0.43-1.37c-0.29-0.32-0.7-0.48-1.22-0.48c-0.53,0-0.94,0.16-1.25,0.48c-0.3,0.32-0.46,0.78-0.46,1.37v6.5
			c0,0.18-0.06,0.32-0.18,0.44c-0.12,0.12-0.27,0.18-0.44,0.18H56.94z"/>
		<path class="st0" d="M75.97,25.6c-0.88,0-1.67-0.17-2.36-0.5c-0.7-0.34-1.24-0.79-1.63-1.36c-0.39-0.57-0.59-1.2-0.59-1.91
			c0-1.15,0.47-2.06,1.4-2.72c0.94-0.66,2.19-1.12,3.76-1.38l2.78-0.43v-0.17c0-0.5-0.08-0.87-0.24-1.12
			c-0.16-0.25-0.48-0.37-0.96-0.37c-0.34,0-0.61,0.06-0.82,0.19c-0.21,0.13-0.4,0.31-0.58,0.55c-0.16,0.18-0.37,0.26-0.62,0.26
			h-3.38c-0.16,0-0.29-0.05-0.4-0.14c-0.1-0.1-0.15-0.22-0.13-0.38c0.02-0.29,0.14-0.63,0.36-1.02c0.22-0.39,0.57-0.78,1.04-1.15
			c0.47-0.38,1.08-0.69,1.84-0.94c0.75-0.25,1.66-0.37,2.71-0.37c1.07,0,1.99,0.12,2.76,0.36c0.77,0.24,1.4,0.58,1.9,1.01
			c0.5,0.43,0.86,0.96,1.1,1.57c0.24,0.62,0.36,1.3,0.36,2.05v7.1c0,0.18-0.06,0.32-0.18,0.44c-0.12,0.12-0.27,0.18-0.44,0.18h-3.48
			c-0.18,0-0.33-0.06-0.46-0.18c-0.13-0.12-0.19-0.27-0.19-0.44v-0.77c-0.21,0.32-0.48,0.6-0.83,0.84c-0.34,0.24-0.74,0.43-1.2,0.58
			C77.04,25.53,76.53,25.6,75.97,25.6z M77.36,22.45c0.4,0,0.75-0.08,1.06-0.25c0.3-0.17,0.54-0.43,0.71-0.78
			c0.17-0.35,0.25-0.79,0.25-1.32v-0.17l-1.73,0.34c-0.59,0.11-1.01,0.27-1.25,0.48c-0.24,0.21-0.36,0.45-0.36,0.72
			c0,0.19,0.06,0.36,0.17,0.5c0.11,0.14,0.27,0.26,0.47,0.35C76.88,22.41,77.1,22.45,77.36,22.45z"/>
		<path class="st0" d="M87.27,25.36c-0.18,0-0.32-0.06-0.44-0.18c-0.12-0.12-0.18-0.27-0.18-0.44V13.5c0-0.18,0.06-0.32,0.18-0.44
			c0.12-0.12,0.27-0.18,0.44-0.18h3.48c0.18,0,0.32,0.06,0.44,0.18c0.12,0.12,0.18,0.27,0.18,0.44v0.86
			c0.42-0.48,0.97-0.89,1.66-1.22s1.47-0.5,2.35-0.5c0.86,0,1.65,0.2,2.35,0.6c0.7,0.4,1.27,1,1.7,1.8s0.65,1.81,0.65,3.02v6.67
			c0,0.18-0.06,0.32-0.19,0.44c-0.13,0.12-0.28,0.18-0.46,0.18h-3.79c-0.18,0-0.32-0.06-0.44-0.18c-0.12-0.12-0.18-0.27-0.18-0.44
			v-6.5c0-0.59-0.14-1.05-0.43-1.37c-0.29-0.32-0.7-0.48-1.22-0.48c-0.53,0-0.94,0.16-1.25,0.48c-0.3,0.32-0.46,0.78-0.46,1.37v6.5
			c0,0.18-0.06,0.32-0.18,0.44c-0.12,0.12-0.27,0.18-0.44,0.18H87.27z"/>
		<path class="st0" d="M109.37,25.36c-1.09,0-2.04-0.16-2.87-0.48c-0.82-0.32-1.46-0.84-1.92-1.57s-0.68-1.69-0.68-2.89v-3.86h-1.9
			c-0.18,0-0.32-0.06-0.44-0.18c-0.12-0.12-0.18-0.27-0.18-0.44V13.5c0-0.18,0.06-0.32,0.18-0.44c0.12-0.12,0.27-0.18,0.44-0.18h1.9
			V8.94c0-0.18,0.06-0.32,0.18-0.44c0.12-0.12,0.27-0.18,0.44-0.18h3.48c0.18,0,0.32,0.06,0.44,0.18c0.12,0.12,0.18,0.27,0.18,0.44
			v3.94h3.02c0.18,0,0.32,0.06,0.44,0.18c0.12,0.12,0.18,0.27,0.18,0.44v2.42c0,0.18-0.06,0.32-0.18,0.44
			c-0.12,0.12-0.27,0.18-0.44,0.18h-3.02v3.46c0,0.46,0.1,0.83,0.29,1.09c0.19,0.26,0.5,0.4,0.91,0.4h2.02
			c0.18,0,0.32,0.06,0.44,0.18s0.18,0.27,0.18,0.44v2.62c0,0.18-0.06,0.32-0.18,0.44c-0.12,0.12-0.27,0.18-0.44,0.18H109.37z"/>
		<path class="st0" d="M121.59,29.17c-1.12,0-2.15-0.21-3.08-0.62c-0.94-0.42-1.75-1.07-2.44-1.97c-0.69-0.9-1.22-2.06-1.58-3.48
			c-0.37-1.42-0.55-3.14-0.55-5.16c0-2.03,0.18-3.76,0.55-5.18c0.37-1.42,0.9-2.58,1.58-3.46c0.69-0.88,1.5-1.53,2.44-1.94
			c0.94-0.42,1.96-0.62,3.08-0.62c0.18,0,0.32,0.06,0.44,0.18c0.12,0.12,0.18,0.27,0.18,0.44V9.9c0,0.16-0.06,0.3-0.18,0.42
			c-0.12,0.12-0.27,0.19-0.44,0.2c-0.64,0.05-1.18,0.26-1.61,0.64s-0.77,0.9-1.01,1.56c-0.24,0.66-0.41,1.44-0.52,2.32
			c-0.1,0.88-0.16,1.85-0.16,2.9s0.05,2.03,0.16,2.92c0.1,0.89,0.28,1.66,0.52,2.32c0.24,0.66,0.58,1.18,1.01,1.56
			s0.97,0.6,1.61,0.65c0.18,0.02,0.32,0.08,0.44,0.19s0.18,0.26,0.18,0.43v2.54c0,0.18-0.06,0.32-0.18,0.44
			C121.91,29.11,121.77,29.17,121.59,29.17z"/>
		<path class="st0" d="M129.1,25.6c-2,0-3.59-0.52-4.76-1.55c-1.18-1.03-1.78-2.61-1.81-4.74c0-0.06,0-0.15,0-0.25s0-0.18,0-0.23
			c0.05-1.33,0.34-2.45,0.88-3.37s1.29-1.62,2.26-2.1s2.11-0.72,3.42-0.72c1.47,0,2.69,0.29,3.66,0.88
			c0.97,0.58,1.69,1.36,2.17,2.33c0.48,0.97,0.72,2.05,0.72,3.25v0.67c0,0.16-0.06,0.3-0.19,0.43c-0.13,0.13-0.28,0.19-0.46,0.19
			h-7.39c0,0.06,0,0.11,0,0.14c0,0.38,0.05,0.72,0.16,1.02c0.1,0.3,0.27,0.53,0.49,0.7c0.22,0.17,0.5,0.25,0.82,0.25
			c0.21,0,0.38-0.03,0.53-0.1c0.14-0.06,0.27-0.15,0.38-0.25c0.11-0.1,0.21-0.2,0.29-0.3c0.14-0.14,0.26-0.24,0.35-0.28
			s0.23-0.06,0.42-0.06h3.77c0.14,0,0.27,0.05,0.37,0.14c0.1,0.1,0.15,0.22,0.13,0.36c-0.02,0.29-0.15,0.64-0.41,1.04
			c-0.26,0.41-0.64,0.8-1.14,1.19s-1.15,0.7-1.93,0.96C131.03,25.47,130.13,25.6,129.1,25.6z M127.59,17.7h2.98v-0.05
			c0-0.43-0.06-0.8-0.17-1.1c-0.11-0.3-0.28-0.53-0.5-0.68c-0.22-0.15-0.5-0.23-0.82-0.23s-0.59,0.08-0.82,0.23
			c-0.22,0.15-0.39,0.38-0.5,0.68c-0.11,0.3-0.17,0.67-0.17,1.1V17.7z"/>
		<path class="st0" d="M136.54,29.17c-0.18,0-0.32-0.06-0.44-0.18c-0.12-0.12-0.18-0.27-0.18-0.44v-2.54c0-0.18,0.06-0.32,0.18-0.43
			c0.12-0.11,0.26-0.18,0.42-0.19c0.66-0.05,1.2-0.26,1.62-0.65c0.42-0.38,0.76-0.9,1.01-1.56c0.25-0.66,0.42-1.43,0.52-2.32
			s0.14-1.86,0.14-2.92s-0.05-2.02-0.14-2.9s-0.27-1.65-0.52-2.32c-0.25-0.66-0.58-1.18-1.01-1.56c-0.42-0.38-0.96-0.59-1.62-0.64
			c-0.16-0.02-0.3-0.08-0.42-0.2c-0.12-0.12-0.18-0.26-0.18-0.42V7.36c0-0.18,0.06-0.32,0.18-0.44c0.12-0.12,0.27-0.18,0.44-0.18
			c1.12,0,2.15,0.21,3.08,0.62c0.94,0.42,1.75,1.06,2.44,1.94c0.69,0.88,1.22,2.03,1.58,3.46c0.37,1.42,0.55,3.15,0.55,5.18
			c0,2.02-0.18,3.74-0.55,5.16c-0.37,1.42-0.9,2.58-1.58,3.48c-0.69,0.9-1.5,1.55-2.44,1.97C138.69,28.97,137.66,29.17,136.54,29.17
			z"/>
		<path class="st0" d="M151.81,25.36c-0.18,0-0.32-0.06-0.44-0.18c-0.12-0.12-0.18-0.27-0.18-0.44v-3.58c0-0.16,0.06-0.3,0.18-0.43
			s0.27-0.19,0.44-0.19h3.55c0.18,0,0.33,0.06,0.46,0.19s0.19,0.27,0.19,0.43v3.58c0,0.18-0.06,0.32-0.19,0.44
			c-0.13,0.12-0.28,0.18-0.46,0.18H151.81z M151.86,19.48c-0.18,0-0.32-0.06-0.44-0.18s-0.18-0.27-0.18-0.44V9.18
			c0-0.18,0.06-0.32,0.18-0.44s0.27-0.18,0.44-0.18h3.46c0.18,0,0.33,0.06,0.46,0.18c0.13,0.12,0.19,0.27,0.19,0.44v9.67
			c0,0.18-0.06,0.32-0.19,0.44c-0.13,0.12-0.28,0.18-0.46,0.18H151.86z"/>
	</g>
</g>
</svg>
